<?xml version="1.0" encoding="iso-8859-1"?>
<!-- Generator: Adobe Illustrator 19.0.0, SVG Export Plug-In . SVG Version: 6.00 Build 0)  -->
<svg version="1.1" id="Layer_1" xmlns="http://www.w3.org/2000/svg" xmlns:xlink="http://www.w3.org/1999/xlink" x="0px" y="0px"
	 viewBox="0 0 503.893 503.893" style="enable-background:new 0 0 503.893 503.893;" xml:space="preserve">
<g transform="translate(1 1)">
	<path style="fill:#ffffff;" d="M499.053,213.613l-284.16,284.16c-27.307-27.307-71.68-27.307-98.987,0L4.973,385.986
		c27.307-27.307,27.307-71.68,0-98.987L289.133,2.84c27.307,27.307,71.68,27.307,98.987,0l110.933,110.933
		C471.747,141.933,471.747,186.306,499.053,213.613z M200.387,447.426c5.12,0,8.533-3.413,8.533-8.533s-3.413-8.533-8.533-8.533
		c-5.12,0-8.533,3.413-8.533,8.533S195.267,447.426,200.387,447.426z M439.32,208.493c5.12,0,8.533-3.413,8.533-8.533
		s-3.413-8.533-8.533-8.533c-5.12,0-8.533,3.413-8.533,8.533S434.2,208.493,439.32,208.493z M405.187,174.36
		c5.12,0,8.533-3.413,8.533-8.533c0-5.12-3.413-8.533-8.533-8.533c-5.12,0-8.533,3.413-8.533,8.533
		C396.653,170.946,400.067,174.36,405.187,174.36z M371.053,140.226c5.12,0,8.533-3.413,8.533-8.533c0-5.12-3.413-8.533-8.533-8.533
		s-8.533,3.413-8.533,8.533C362.52,136.813,365.933,140.226,371.053,140.226z M336.92,106.093c5.12,0,8.533-3.413,8.533-8.533
		c0-5.12-3.413-8.533-8.533-8.533s-8.533,3.413-8.533,8.533C328.387,102.68,331.8,106.093,336.92,106.093z M302.787,71.96
		c5.12,0,8.533-3.413,8.533-8.533s-3.413-8.533-8.533-8.533s-8.533,3.413-8.533,8.533S297.667,71.96,302.787,71.96z
		 M166.253,413.293c5.12,0,8.533-3.413,8.533-8.533s-3.413-8.533-8.533-8.533s-8.533,3.413-8.533,8.533
		S161.133,413.293,166.253,413.293z M132.12,379.16c5.12,0,8.533-3.413,8.533-8.533c0-5.12-3.413-8.533-8.533-8.533
		s-8.533,3.413-8.533,8.533C123.587,375.746,127,379.16,132.12,379.16z M97.987,345.026c5.12,0,8.533-3.413,8.533-8.533
		c0-5.12-3.413-8.533-8.533-8.533c-5.12,0-8.533,3.413-8.533,8.533C89.453,341.613,92.867,345.026,97.987,345.026z M63.853,310.893
		c5.12,0,8.533-3.413,8.533-8.533s-3.413-8.533-8.533-8.533s-8.533,3.413-8.533,8.533S58.733,310.893,63.853,310.893z"/>
</g>
<path style="fill:#51565F;" d="M116.053,503.893c-0.853,0-2.56,0-3.413-0.853L1.707,392.106c-0.853-0.853-0.853-1.707-0.853-3.413
	s0.853-2.56,0.853-3.413c12.8-12.8,19.627-29.013,19.627-46.08c0-17.067-6.827-34.133-19.627-46.08
	c-0.853-0.853-0.853-1.707-0.853-3.413s0.853-2.56,0.853-3.413L286.72,1.28c1.707-1.707,4.267-1.707,5.973,0
	c12.8,12.8,29.013,19.627,46.08,19.627c17.92,0,34.133-6.827,46.08-19.627c1.707-1.707,4.267-1.707,5.973,0L501.76,112.213
	c1.707,1.707,1.707,4.267,0,5.973c-25.6,25.6-25.6,67.413,0,93.013c1.707,1.707,1.707,4.267,0,5.973L217.6,502.187
	c-1.707,1.707-4.267,1.707-5.973,0c-25.6-25.6-67.413-25.6-93.013,0C118.613,503.893,117.76,503.893,116.053,503.893z
	 M165.547,474.88c17.92,0,34.987,5.973,49.493,18.773l279.04-279.04c-24.747-28.16-24.747-70.827,0-98.987L388.267,9.813
	c-28.16,24.747-70.827,24.747-98.987,0L10.24,288.853c11.947,13.653,18.773,30.72,18.773,49.493c0,18.773-6.827,35.84-18.773,49.493
	l105.813,105.813C130.56,480.853,148.48,474.88,165.547,474.88z M201.387,452.693c-6.827,0-12.8-5.973-12.8-12.8
	s5.973-12.8,12.8-12.8c6.827,0,12.8,5.973,12.8,12.8S208.213,452.693,201.387,452.693z M201.387,435.626
	c-2.56,0-4.267,1.707-4.267,4.267c0,2.56,1.707,4.267,4.267,4.267s4.267-1.707,4.267-4.267
	C205.653,437.333,203.947,435.626,201.387,435.626z M167.253,418.56c-6.827,0-12.8-5.973-12.8-12.8s5.973-12.8,12.8-12.8
	s12.8,5.973,12.8,12.8S174.08,418.56,167.253,418.56z M167.253,401.493c-2.56,0-4.267,1.707-4.267,4.267
	c0,2.56,1.707,4.267,4.267,4.267s4.267-1.707,4.267-4.267C171.52,403.2,169.813,401.493,167.253,401.493z M133.12,384.426
	c-6.827,0-12.8-5.973-12.8-12.8c0-6.827,5.973-12.8,12.8-12.8c6.827,0,12.8,5.973,12.8,12.8
	C145.92,378.453,139.947,384.426,133.12,384.426z M133.12,367.36c-2.56,0-4.267,1.707-4.267,4.267c0,2.56,1.707,4.267,4.267,4.267
	s4.267-1.707,4.267-4.267C137.387,369.067,135.68,367.36,133.12,367.36z M230.4,378.453c-1.707,0-3.413-0.853-4.267-2.56
	l-6.827-13.653l-15.36,2.56c-1.707,0-3.413-0.853-4.267-2.56c-0.853-1.707-0.853-3.413,0.853-5.12l10.24-10.24l-5.12-15.36
	c-0.853-1.707,0-3.413,0.853-4.267c0.853-0.853,2.56-1.707,4.267-0.853l15.36,5.12l10.24-10.24c0.853-0.853,3.413-1.707,5.12-0.853
	c1.707,0.853,2.56,2.56,2.56,4.267l-1.707,15.36l12.8,6.827c1.707,0.853,2.56,2.56,2.56,4.267c0,1.707-0.853,3.413-2.56,3.413
	l-15.36,5.973l-5.973,15.36C233.813,377.6,232.107,378.453,230.4,378.453L230.4,378.453z M222.72,353.706
	c1.707,0,3.413,0.853,4.267,2.56l3.413,7.68l3.413-8.533c0.853-0.853,1.707-1.707,2.56-2.56l8.533-3.413l-6.827-3.413
	c-1.707-0.853-2.56-2.56-2.56-4.267l0.853-5.973l-3.413,3.413c-0.853,0.853-2.56,1.707-4.267,0.853l-10.24-3.413l3.413,10.24
	c0.853,1.707,0,3.413-0.853,4.267l-2.56,2.56H222.72C221.867,353.706,222.72,353.706,222.72,353.706z M98.987,350.293
	c-6.827,0-12.8-5.973-12.8-12.8c0-6.827,5.973-12.8,12.8-12.8s12.8,5.973,12.8,12.8C111.787,344.32,105.813,350.293,98.987,350.293z
	 M98.987,333.226c-2.56,0-4.267,1.707-4.267,4.267c0,2.56,1.707,4.267,4.267,4.267c2.56,0,4.267-1.707,4.267-4.267
	C103.253,334.933,101.547,333.226,98.987,333.226z M290.987,318.72c-1.707,0-3.413-0.853-4.267-2.56l-6.827-13.653l-15.36,2.56
	c-1.707,0-3.413-0.853-4.267-2.56c-0.853-1.707-0.853-3.413,0.853-5.12l10.24-10.24l-5.12-15.36c-0.853-1.707,0-3.413,0.853-4.267
	c0.853-0.853,2.56-1.707,4.267-0.853l15.36,5.12l10.24-10.24c0.853-0.853,3.413-1.707,5.12-0.853c1.707,0.853,2.56,2.56,2.56,4.267
	l-1.707,15.36l12.8,6.827c1.707,0.853,2.56,2.56,2.56,4.267c0,1.707-0.853,3.413-2.56,3.413l-15.36,5.973l-5.973,15.36
	C294.4,317.013,292.693,318.72,290.987,318.72L290.987,318.72z M283.307,293.12c1.707,0,3.413,0.853,4.267,2.56l3.413,7.68
	l3.413-8.533c0.853-0.853,1.707-1.707,2.56-2.56l8.533-3.413l-6.827-3.413c-1.707-0.853-2.56-2.56-2.56-4.267l0.853-5.973
	l-3.413,3.413c-0.853,0.853-2.56,1.707-4.267,0.853l-10.24-3.413l3.413,10.24c0.853,1.707,0,3.413-0.853,4.267l-2.56,2.56H283.307
	C282.453,293.12,282.453,293.12,283.307,293.12z M168.107,317.013c-0.853,0-2.56,0-3.413-0.853L140.8,292.267
	c-0.853-0.853-0.853-1.707-0.853-3.413s0.853-2.56,0.853-3.413l21.333-21.333l-17.92-17.92L122.88,267.52
	c-1.707,1.707-4.267,1.707-5.973,0c-1.707-1.707-1.707-4.267,0-5.973l23.893-23.893c1.707-1.707,4.267-1.707,5.973,0l23.893,23.893
	c0.853,0.853,0.853,1.707,0.853,3.413s-0.853,2.56-0.853,3.413l-21.333,21.333l17.92,17.92l21.333-21.333
	c1.707-1.707,4.267-1.707,5.973,0c1.707,1.707,1.707,4.267,0,5.973l-23.893,23.893C170.667,316.16,168.96,317.013,168.107,317.013z
	 M64.853,316.16c-6.827,0-12.8-5.973-12.8-12.8c0-6.827,5.973-12.8,12.8-12.8s12.8,5.973,12.8,12.8
	C77.653,310.186,71.68,316.16,64.853,316.16z M64.853,299.093c-2.56,0-4.267,1.707-4.267,4.267c0,2.56,1.707,4.267,4.267,4.267
	c2.56,0,4.267-1.707,4.267-4.267C69.12,300.8,67.413,299.093,64.853,299.093z M222.72,262.4c-1.707,0-3.413-0.853-4.267-2.56
	l-22.187-65.707L176.64,213.76c-1.707,1.707-4.267,1.707-5.973,0s-1.707-4.267,0-5.973l23.893-23.893
	c0.853-0.853,2.56-1.707,4.267-0.853c1.707,0,2.56,1.707,3.413,2.56l23.893,72.533c0.853,2.56-0.853,4.267-2.56,5.12
	C223.573,262.4,222.72,262.4,222.72,262.4z M350.72,258.133c-1.707,0-3.413-0.853-4.267-2.56l-6.827-13.653l-15.36,2.56
	c-1.707,0-3.413-0.853-4.267-2.56c-0.853-1.707-0.853-3.413,0.853-5.12l10.24-10.24l-5.12-15.36c-0.853-1.707,0-3.413,0.853-4.267
	c0.853-0.853,2.56-1.707,4.267-0.853l15.36,5.12l10.24-10.24c0.853-0.853,3.413-1.707,5.12-0.853c1.707,0.853,2.56,2.56,2.56,4.267
	l-1.707,15.36l12.8,6.827c1.707,0.853,2.56,2.56,2.56,4.267s-0.853,3.413-2.56,3.413l-15.36,5.973l-5.973,15.36
	C354.133,257.28,353.28,258.133,350.72,258.133C351.573,258.133,350.72,258.133,350.72,258.133z M343.04,232.533
	c1.707,0,3.413,0.853,4.267,2.56l3.413,7.68l3.413-8.533c0.853-0.853,1.707-1.707,2.56-2.56l8.533-3.413l-6.827-3.413
	c-1.707-0.853-2.56-2.56-2.56-4.267l0.853-5.973l-3.413,3.413c-0.853,0.853-2.56,1.707-4.267,0.853l-10.24-3.413l3.413,10.24
	c0.853,1.707,0,3.413-0.853,4.267l-2.56,2.56H343.04L343.04,232.533z M264.533,220.586c-1.707,0-3.413-0.853-4.267-2.56
	l-23.893-72.533c-0.853-1.707,0-3.413,0.853-4.267c0.853-0.853,2.56-1.707,4.267-0.853l53.76,17.92l0,0l17.92,5.973
	c2.56,0.853,3.413,3.413,2.56,5.12c-0.853,2.56-3.413,3.413-5.12,2.56l-15.36-5.12l-32.427,32.427l5.12,15.36
	c0.853,2.56-0.853,4.267-2.56,5.12C265.387,219.733,265.387,220.586,264.533,220.586z M247.467,150.613l13.653,40.107l26.453-26.453
	L247.467,150.613z M440.32,213.76c-6.827,0-12.8-5.973-12.8-12.8s5.973-12.8,12.8-12.8c6.827,0,12.8,5.973,12.8,12.8
	S447.147,213.76,440.32,213.76z M440.32,196.693c-2.56,0-4.267,1.707-4.267,4.267s1.707,4.267,4.267,4.267
	c2.56,0,4.267-1.707,4.267-4.267S442.88,196.693,440.32,196.693z M406.187,179.626c-6.827,0-12.8-5.973-12.8-12.8
	c0-6.827,5.973-12.8,12.8-12.8c6.827,0,12.8,5.973,12.8,12.8C418.987,173.653,413.013,179.626,406.187,179.626z M406.187,162.56
	c-2.56,0-4.267,1.707-4.267,4.267c0,2.56,1.707,4.267,4.267,4.267s4.267-1.707,4.267-4.267
	C410.453,164.267,408.747,162.56,406.187,162.56z M372.053,145.493c-6.827,0-12.8-5.973-12.8-12.8c0-6.827,5.973-12.8,12.8-12.8
	s12.8,5.973,12.8,12.8C384.853,139.52,378.88,145.493,372.053,145.493z M372.053,128.426c-2.56,0-4.267,1.707-4.267,4.267
	c0,2.56,1.707,4.267,4.267,4.267s4.267-1.707,4.267-4.267C376.32,130.133,374.613,128.426,372.053,128.426z M337.92,111.36
	c-6.827,0-12.8-5.973-12.8-12.8c0-6.827,5.973-12.8,12.8-12.8s12.8,5.973,12.8,12.8C350.72,105.386,344.747,111.36,337.92,111.36z
	 M337.92,94.293c-2.56,0-4.267,1.707-4.267,4.267c0,2.56,1.707,4.267,4.267,4.267s4.267-1.707,4.267-4.267
	C342.187,96,340.48,94.293,337.92,94.293z M303.787,77.226c-6.827,0-12.8-5.973-12.8-12.8s5.973-12.8,12.8-12.8
	s12.8,5.973,12.8,12.8S310.613,77.226,303.787,77.226z M303.787,60.16c-2.56,0-4.267,1.707-4.267,4.267
	c0,2.56,1.707,4.267,4.267,4.267s4.267-1.707,4.267-4.267C308.053,61.867,306.347,60.16,303.787,60.16z"/>
<g>
</g>
<g>
</g>
<g>
</g>
<g>
</g>
<g>
</g>
<g>
</g>
<g>
</g>
<g>
</g>
<g>
</g>
<g>
</g>
<g>
</g>
<g>
</g>
<g>
</g>
<g>
</g>
<g>
</g>
</svg>
